<svg xmlns="http://www.w3.org/2000/svg" width="32" height="38" fill="none" viewBox="0 0 32 38"><path fill="url(#paint0_linear)" d="M28.1539 0H13.5385C11.4143 0 9.69232 1.72198 9.69232 3.84615V23.8462C9.69232 25.9703 11.4143 27.6923 13.5385 27.6923H28.1539C30.278 27.6923 32 25.9703 32 23.8462V3.84615C32 1.72198 30.278 0 28.1539 0Z"/><g filter="url(#filter0_d)"><path fill="url(#paint1_linear)" d="M17.2785 8.64723H5.18302C3.42509 8.64723 2 10.0723 2 11.8303V28.382C2 30.1399 3.42509 31.565 5.18302 31.565H17.2785C19.0365 31.565 20.4615 30.1399 20.4615 28.382V11.8303C20.4615 10.0723 19.0365 8.64723 17.2785 8.64723Z"/></g><defs><filter id="filter0_d" width="26.462" height="30.918" x="0" y="6.647" color-interpolation-filters="sRGB" filterUnits="userSpaceOnUse"><feFlood flood-opacity="0" result="BackgroundImageFix"/><feColorMatrix in="SourceAlpha" result="hardAlpha" type="matrix" values="0 0 0 0 0 0 0 0 0 0 0 0 0 0 0 0 0 0 127 0"/><feOffset dx="2" dy="2"/><feGaussianBlur stdDeviation="2"/><feComposite in2="hardAlpha" operator="out"/><feColorMatrix type="matrix" values="0 0 0 0 0 0 0 0 0 0 0 0 0 0 0 0 0 0 0.15 0"/><feBlend in2="BackgroundImageFix" mode="normal" result="effect1_dropShadow"/><feBlend in="SourceGraphic" in2="effect1_dropShadow" mode="normal" result="shape"/></filter><linearGradient id="paint0_linear" x1="20.462" x2="20.462" y1="-10.769" y2="45.385" gradientUnits="userSpaceOnUse"><stop/><stop offset="1" stop-color="#fff"/></linearGradient><linearGradient id="paint1_linear" x1="11.231" x2="11.231" y1="8.647" y2="51.154" gradientUnits="userSpaceOnUse"><stop stop-color="#fff"/><stop offset="1" stop-color="#AAA"/></linearGradient></defs></svg>