<svg xmlns="http://www.w3.org/2000/svg" width="42" height="42" viewBox="0 0 42 42"><g id="vuesax_bold_toggle-off-circle" data-name="vuesax/bold/toggle-off-circle" transform="translate(-80 -251)"><g id="toggle-off-circle" transform="translate(80 251)"><rect id="Rectangle_76" width="42" height="42" fill="#b0d0f7" data-name="Rectangle 76" rx="11" transform="translate(0 0)"/><g id="Group_71" data-name="Group 71" transform="translate(11.243 11.321)"><path id="Path_60" fill="#0070f3" d="M21.7,0H12.194a2.5,2.5,0,0,0-2.5,2.5V15.511a2.5,2.5,0,0,0,2.5,2.5H21.7a2.5,2.5,0,0,0,2.5-2.5V2.5A2.5,2.5,0,0,0,21.7,0Z" data-name="Path 60" transform="translate(-4.689)"/><path id="Path_61" fill="#2f8fff" d="M11.938,8.647H4.07A2.07,2.07,0,0,0,2,10.718V21.484a2.07,2.07,0,0,0,2.07,2.07h7.868a2.07,2.07,0,0,0,2.07-2.07V10.718A2.07,2.07,0,0,0,11.938,8.647Z" data-name="Path 61" transform="translate(-2 -3.022)"/></g></g></g></svg>